<?xml version="1.0" encoding="UTF-8"?>
<svg version="1.1" xmlns="http://www.w3.org/2000/svg" width="1024" height="1024">
<path d="M0 0 C1.02996094 0.34417969 2.05992187 0.68835938 3.12109375 1.04296875 C22.60642626 7.91868481 40.69005141 18.84959195 55.7734375 32.92578125 C57.79952496 34.81324168 59.87896905 36.59620711 62 38.375 C74.35917458 49.22029979 83.93015308 62.76295299 92 77 C94.59147469 74.72214326 96.31908284 72.06338923 98.15795898 69.16479492 C114.4323704 43.5599386 137.78286146 24.0594776 165 11 C166.00675781 10.4946875 167.01351563 9.989375 168.05078125 9.46875 C210.6321707 -11.29727132 260.6635291 -13.36654756 305.28515625 1.75 C329.20615975 10.23541722 350.44132109 23.80845387 368.54589844 41.58105469 C369.95097136 42.95215674 371.38523764 44.29314428 372.8203125 45.6328125 C385.94532854 58.15953721 395.43082276 73.1110141 404 89 C404.34353516 89.62205322 404.68707031 90.24410645 405.04101562 90.88500977 C408.26255584 96.96511094 410.35460085 103.41572329 412.5 109.9375 C412.89582275 111.13882568 413.29164551 112.34015137 413.69946289 113.57788086 C428.23421281 158.34948373 426.69729778 208.50800789 408 252 C407.67128906 252.77649902 407.34257813 253.55299805 407.00390625 254.35302734 C402.04258831 265.99531417 396.50059223 277.14279386 390 288 C389.43925781 288.94746094 388.87851562 289.89492188 388.30078125 290.87109375 C381.41166607 302.09718217 373.11739608 312.53100983 364.81640625 322.73828125 C362.28173252 325.89435886 359.861313 329.13525834 357.4453125 332.3828125 C356.96835937 332.91648437 356.49140625 333.45015625 356 334 C355.34 334 354.68 334 354 334 C353.73574219 334.57878906 353.47148438 335.15757812 353.19921875 335.75390625 C349.41075186 342.84956898 342.6796805 349.4401065 335 352 C328.99717391 352.60493596 324.35792401 351.988073 319 349 C314.70517036 345.37325497 312.398894 342.43662524 311.74609375 336.8125 C311.30029498 327.6089124 315.35096248 320.14541184 319.34814453 312.0793457 C341.38302968 267.56719243 362.53018779 219.06606729 362.3125 168.5625 C362.31067719 167.88678955 362.30885437 167.2110791 362.30697632 166.51489258 C362.26094044 156.35520812 361.78979676 146.80928539 359 137 C358.6596875 135.7728125 358.319375 134.545625 357.96875 133.28125 C352.83836675 116.50351019 344.34292838 100.31818761 332.25 87.5234375 C331 86 331 86 331 84 C330.15115234 83.63455078 330.15115234 83.63455078 329.28515625 83.26171875 C326.57930049 81.76771634 324.66996505 79.94934052 322.4375 77.8125 C303.47526902 60.53396056 276.43952004 50.1117528 251 49 C249.68773437 48.93554688 248.37546875 48.87109375 247.0234375 48.8046875 C219.97747993 47.9049671 191.14933356 57.03368336 170 74 C169.1853125 74.60199219 168.370625 75.20398438 167.53125 75.82421875 C146.43686902 91.74513604 132.16944476 115.61144722 123 140 C122.21339017 141.98118191 121.42243204 143.96064924 120.625 145.9375 C120.30789063 146.73027344 119.99078125 147.52304687 119.6640625 148.33984375 C119.44492187 148.88769531 119.22578125 149.43554688 119 150 C119.6703125 150.23976563 120.340625 150.47953125 121.03125 150.7265625 C132.74490849 155.75110548 142.64618598 163.71657678 151.60839844 172.63183594 C152.83714405 173.83988689 154.10722643 175.00557941 155.3828125 176.1640625 C175.33507095 194.68605153 186.43992926 221.84904528 192 248 C192.23847656 249.09183594 192.47695313 250.18367188 192.72265625 251.30859375 C198.0736279 280.82753005 189.35343545 312.2693842 175 338 C174.61440918 338.69577148 174.22881836 339.39154297 173.83154297 340.10839844 C164.75974666 356.33443508 153.88961894 370.74673685 142 385 C141.45408203 385.66918457 140.90816406 386.33836914 140.34570312 387.02783203 C139.81396484 387.66962402 139.28222656 388.31141602 138.734375 388.97265625 C138.25709961 389.554104 137.77982422 390.13555176 137.28808594 390.73461914 C136 392 136 392 134 392 C133.690625 392.79664063 133.690625 392.79664063 133.375 393.609375 C131.42038808 397.00773436 128.77876283 399.51055928 126 402.25 C125.4534375 402.80429687 124.906875 403.35859375 124.34375 403.9296875 C120.2533867 408 120.2533867 408 118 408 C118 408.66 118 409.32 118 410 C117.34 410 116.68 410 116 410 C116 410.66 116 411.32 116 412 C113.91085766 413.78811319 111.81310037 415.4656999 109.625 417.125 C108.33052807 418.12473967 107.03625825 419.1247411 105.7421875 420.125 C105.10249023 420.61613281 104.46279297 421.10726563 103.80371094 421.61328125 C97.13763886 426.73825274 90.76054521 432.06676625 84.546875 437.73046875 C82.02279416 439.97968803 79.4404939 442.12350198 76.8125 444.25 C69.72398525 449.99259423 62.87394674 456.00416223 56 462 C51.58446839 465.85147168 47.16332394 469.69589445 42.72070312 473.51611328 C41.60670527 474.47679418 40.49581016 475.44108972 39.38867188 476.40966797 C32.09476503 482.78368554 26.37047657 486.61916367 16.43359375 486.30078125 C-0.41476773 484.21839949 -15.76744311 469.75861594 -29 460 C-30.08112061 459.20360107 -30.08112061 459.20360107 -31.18408203 458.39111328 C-38.76664546 452.79144141 -46.23654844 447.09922249 -53.4921875 441.078125 C-55.97256854 439.02273137 -58.47998816 437.0065298 -61 435 C-62.66718045 433.66730915 -64.33383593 432.33396134 -66 431 C-67.32837891 429.93652344 -67.32837891 429.93652344 -68.68359375 428.8515625 C-74.44708761 424.1917164 -79.99287918 419.35588319 -85.4453125 414.3359375 C-87.61942099 412.34799121 -89.82422776 410.41466662 -92.0625 408.5 C-96.10087952 404.9984194 -99.81437293 401.20186854 -103.56640625 397.3984375 C-105.6276938 395.36692778 -107.72186556 393.48268941 -109.9375 391.625 C-113.90826205 388.2306389 -117.37140077 384.42109962 -120.85864258 380.5456543 C-123.68988456 377.4047835 -126.59115441 374.38663088 -129.625 371.4375 C-133.64797605 367.4716888 -137.16432903 363.21591207 -140.69140625 358.80859375 C-142.99623225 356.00458377 -145.40416026 353.34570199 -147.875 350.6875 C-171.72601966 324.66820582 -220 269.16353282 -220 232 C-220.66 232 -221.32 232 -222 232 C-222.2784375 232.86238281 -222.556875 233.72476563 -222.84375 234.61328125 C-223.95261375 237.86120312 -225.20528811 241.00992965 -226.5 244.1875 C-236.66606594 270.72722966 -228.20098931 297.37699475 -217.24023438 322.26806641 C-209.56655904 339.17130007 -199.12916161 354.22638762 -188 369 C-187.5757373 369.56605957 -187.15147461 370.13211914 -186.71435547 370.71533203 C-182.03360957 376.94718091 -177.20917177 383.03888828 -172.1875 389 C-171.74341797 389.52803223 -171.29933594 390.05606445 -170.84179688 390.60009766 C-168.70987703 393.1030998 -166.53302103 395.45470705 -164.17578125 397.75 C-162 400 -162 400 -162 402 C-161.34 402 -160.68 402 -160 402 C-160 402.66 -160 403.32 -160 404 C-159.01 404.33 -158.02 404.66 -157 405 C-155.4921875 406.53125 -155.4921875 406.53125 -153.875 408.5 C-150.39040284 412.63376194 -146.62437174 416.3783149 -142.72265625 420.1171875 C-141 422 -141 422 -141 424 C-140.44151367 424.23178955 -139.88302734 424.4635791 -139.30761719 424.70239258 C-136.39500672 426.34019671 -134.41809206 428.37538715 -132.078125 430.76171875 C-131.61444519 431.23060013 -131.15076538 431.69948151 -130.67303467 432.18257141 C-129.19382975 433.67951598 -127.72147299 435.18295749 -126.25 436.6875 C-120.53326313 442.51366176 -114.83544074 448.29307927 -108.62255859 453.59790039 C-106.70027036 455.25900501 -104.93567492 457.03266109 -103.1875 458.875 C-99.37311382 462.74123221 -95.27532409 466.12587777 -91.04296875 469.5234375 C-87.69996642 472.2441865 -84.44351628 475.05152225 -81.1875 477.875 C-75.85555018 482.48568082 -70.39428605 486.88957838 -64.82446289 491.20874023 C-61.83643155 493.53248361 -58.92736334 495.89324907 -56.125 498.4375 C-50.45262449 503.5064313 -44.22240983 507.89953574 -38.11572266 512.42382812 C-36.09200145 513.93146073 -34.08093019 515.45420068 -32.07421875 516.984375 C-24.20962228 522.96918938 -16.19733625 528.66501467 -8.01220703 534.20361328 C-2.32037987 538.06430828 3.24174843 542.06824259 8.76293945 546.16796875 C14.3761326 550.31916028 20.15132933 554.18689608 26 558 C26.99 558.66 27.98 559.32 29 560 C32.99594074 559.68897301 35.55608855 558.22948996 38.80859375 555.97265625 C40.16464722 555.03993896 40.16464722 555.03993896 41.5480957 554.08837891 C42.50159912 553.41983887 43.45510254 552.75129883 44.4375 552.0625 C45.43031982 551.37591309 46.42313965 550.68932617 47.44604492 549.98193359 C53.13398588 546.03810933 58.78213497 542.04153911 64.3894043 537.98388672 C70.25834658 533.7613925 76.26131613 529.73738531 82.25 525.6875 C96.18789459 516.24827097 109.80926723 506.44661893 123.24438477 496.30737305 C127.45122318 493.13874229 131.70199818 490.04360486 136 487 C147.63724767 478.74594196 158.95362129 470.07669799 170.19799805 461.29760742 C175.46274716 457.1881609 180.75297941 453.11391548 186.0625 449.0625 C191.73051961 444.73620092 197.38747714 440.39822916 203 436 C203.51095215 435.60103516 204.0219043 435.20207031 204.54833984 434.79101562 C212.44684621 428.6234729 220.26912898 422.37739508 228 416 C234.07997725 410.9844698 240.19474699 406.01638389 246.375 401.125 C246.95805908 400.6604541 247.54111816 400.1959082 248.1418457 399.71728516 C254.79577655 394.47584028 258.61858108 392.41257949 267.125 392.65234375 C272.55573327 393.30904927 275.10113929 396.06028199 278.75 399.875 C282.01282491 404.40670126 283.05284334 407.33543485 282.875 412.9375 C281.36129953 421.85151388 274.63418608 428.33043516 269 435 C268.11794375 436.05813899 267.23644296 437.11674122 266.35546875 438.17578125 C260.11570202 445.64865009 253.64755738 452.88777455 247 460 C246.37367676 460.67144043 245.74735352 461.34288086 245.10205078 462.03466797 C225.61545003 482.90482205 225.61545003 482.90482205 222 486 C221.34 486 220.68 486 220 486 C219.7834375 486.55300781 219.566875 487.10601563 219.34375 487.67578125 C217.56577535 490.75105717 215.13280236 492.86332856 212.5 495.1875 C211.69477905 495.91151001 211.69477905 495.91151001 210.87329102 496.65014648 C209.25336778 498.10522618 207.62684998 499.55267497 206 501 C204.31183793 502.52009839 202.62428502 504.04087371 200.9375 505.5625 C200.13183594 506.284375 199.32617188 507.00625 198.49609375 507.75 C196.75033195 509.32364444 195.01409151 510.90788696 193.28515625 512.5 C188.29475015 517.09145358 183.24102496 521.49714995 177.91015625 525.6875 C174.17004021 528.65951168 170.49372145 531.70556585 166.8125 534.75 C149.47516095 549.04436598 131.76242808 562.63543194 113.34863281 575.5246582 C109.69233975 578.08619405 106.06170989 580.67580627 102.46484375 583.3203125 C94.52144948 589.15612036 86.56400199 594.67170867 78.0390625 599.62109375 C74.0600238 601.93633532 70.17604434 604.39267952 66.28417969 606.85083008 C36.95544904 625.29572877 36.95544904 625.29572877 25 623 C8.91192868 618.78301901 -7.23996129 604.48046695 -20.51269531 594.91748047 C-24.26266554 592.22097599 -28.04883819 589.58700041 -31.86816406 586.98974609 C-40.09011623 581.39841852 -48.06984557 575.53855061 -55.98681641 569.52490234 C-58.69985517 567.46988899 -61.4263965 565.43318248 -64.15283203 563.39599609 C-71.8206038 557.66402848 -79.43890388 551.87191507 -87 546 C-87.54301758 545.57928223 -88.08603516 545.15856445 -88.64550781 544.72509766 C-96.52695267 538.61065895 -104.27244286 532.34552538 -111.95727539 525.98583984 C-115.6726422 522.91166729 -119.40297207 519.86409349 -123.1875 516.875 C-132.98087123 509.06677159 -142.37162941 500.82885414 -151.41088867 492.15966797 C-154.82595838 488.91416814 -158.34211291 485.91123949 -162.03515625 482.984375 C-168.73775942 477.55118249 -174.76943777 471.49633207 -180.83544922 465.37036133 C-182.75562183 463.4318244 -184.68378456 461.50151789 -186.61328125 459.57226562 C-192.0901051 454.07954798 -197.52548849 448.59716338 -202.55371094 442.68481445 C-204.52017053 440.39404172 -206.59817808 438.21896727 -208.67797852 436.03149414 C-215.10475168 429.25937799 -220.94021831 422.1902514 -226.61425781 414.78417969 C-228.51340865 412.3389728 -230.47196946 409.94425909 -232.42822266 407.54467773 C-242.61751274 395.00667553 -251.80010543 381.90418754 -259.87768555 367.90942383 C-260.69512032 366.51870001 -261.53273352 365.13977793 -262.38208008 363.76831055 C-285.892128 325.6403 -297.39938294 279.88682763 -287.47998047 235.68261719 C-282.03967575 213.56162837 -271.47656082 193.67665667 -256 177 C-255.51096191 176.47245117 -255.02192383 175.94490234 -254.51806641 175.40136719 C-245.72796847 166.03557369 -245.72796847 166.03557369 -241.2746582 163.36669922 C-235.31255751 159.70203191 -235.31255751 159.70203191 -231.74365234 153.87182617 C-231.00355204 150.16178327 -230.54862589 146.51562251 -230.1875 142.75 C-229.8475658 140.05141894 -229.4714071 137.35813912 -229.09765625 134.6640625 C-228.96650421 133.67011978 -228.96650421 133.67011978 -228.83270264 132.65609741 C-224.70261693 102.14420021 -207.43695246 72.84810783 -187.578125 49.97265625 C-185.8169349 47.94195069 -184.09520779 45.90335932 -182.39453125 43.82421875 C-179.24101311 40.10481645 -175.71986292 37.13415586 -172 34 C-171.15824219 33.25878906 -170.31648438 32.51757812 -169.44921875 31.75390625 C-156.01722697 20.14257173 -141.39715432 10.82174665 -125 4 C-124.34322266 3.72462402 -123.68644531 3.44924805 -123.00976562 3.16552734 C-108.33551034 -2.89034069 -92.79445849 -7.25175841 -77 -9 C-75.96617187 -9.12246094 -74.93234375 -9.24492187 -73.8671875 -9.37109375 C-49.27125951 -11.72602303 -23.19070519 -8.44486784 0 0 Z M-83 53 C-83.6614502 53.18191895 -84.32290039 53.36383789 -85.00439453 53.55126953 C-103.1046169 58.65692843 -119.94732049 67.94705208 -133.6484375 80.82421875 C-136 83 -136 83 -138.890625 85.2734375 C-142.63264813 88.37001805 -145.46398926 92.07256672 -148.375 95.9375 C-148.94154297 96.68749268 -149.50808594 97.43748535 -150.09179688 98.21020508 C-162.70623306 115.11039847 -162.70623306 115.11039847 -168 135 C-167.28199219 134.97679687 -166.56398438 134.95359375 -165.82421875 134.9296875 C-132.04220159 134.34071086 -99.63588091 143.51930443 -74 166 C-73.18273437 166.67289062 -72.36546875 167.34578125 -71.5234375 168.0390625 C-64.39622035 174.08022751 -58.81914448 181.14916796 -53.16992188 188.53881836 C-51.92596395 190.14738713 -51.92596395 190.14738713 -50 192 C-49.3709375 191.154375 -48.741875 190.30875 -48.09375 189.4375 C-43.52974067 183.36856723 -39.00044061 177.65850942 -33.3984375 172.48828125 C-31.77174406 171.09744737 -31.77174406 171.09744737 -32 169 C-31.20142578 168.66162109 -31.20142578 168.66162109 -30.38671875 168.31640625 C-27.85386177 166.91939675 -25.75063316 165.22181555 -23.53686523 163.37011719 C3.11290553 141.22926275 36.29577369 135.64059474 70 136 C61.44465404 106.05628913 38.5697361 80.7429235 11.8515625 65.61328125 C-17.40536415 49.50115404 -50.46750117 43.80324017 -83 53 Z M1 214 C1 214.66 1 215.32 1 216 C0.44699219 216.20238281 -0.10601562 216.40476562 -0.67578125 216.61328125 C-3.90789443 218.54168491 -5.92638088 221.24660646 -8.1875 224.1875 C-8.66654785 224.80681396 -9.1455957 225.42612793 -9.63916016 226.06420898 C-20.31487393 240.13995548 -27.29943667 254.54757063 -30.56958008 271.99731445 C-31.36725805 276.05502895 -32.0715823 278.17101924 -35 281 C-35 281.66 -35 282.32 -35 283 C-49.52992671 288.09609121 -49.52992671 288.09609121 -56.19921875 284.96875 C-62.79509189 280.57962924 -65.11937949 275.14743855 -66.7265625 267.578125 C-67.20980979 265.01850748 -67.69152509 262.45860034 -68.171875 259.8984375 C-71.31583164 245.0981133 -78.47795008 229.22379077 -90 219 C-90.66 219 -91.32 219 -92 219 C-92 218.34 -92 217.68 -92 217 C-105.38474659 202.83011465 -125.46773768 192.83739123 -145.015625 191.65625 C-148.37191737 191.62719119 -151.65430641 191.74595119 -155 192 C-155.90878906 192.04511719 -156.81757813 192.09023438 -157.75390625 192.13671875 C-161.92844456 192.40982695 -161.92844456 192.40982695 -165.67578125 194.10546875 C-167.68022134 196.97317802 -168.12842004 199.57964176 -168 203 C-167.2245642 206.77760941 -166.0192349 210.36223224 -164.75 214 C-164.38865967 215.0516333 -164.02731934 216.1032666 -163.6550293 217.18676758 C-154.99971805 241.6101706 -141.95861552 263.75723315 -126.28759766 284.31103516 C-124.5562671 286.58205237 -122.84522432 288.86802609 -121.13378906 291.15405273 C-120.01856211 292.64185653 -118.89815309 294.12577205 -117.77734375 295.609375 C-116.46825332 297.37017355 -115.21707459 299.17438812 -114 301 C-113.34 301 -112.68 301 -112 301 C-111.62681641 301.8353125 -111.62681641 301.8353125 -111.24609375 302.6875 C-109.78346393 305.4018475 -108.01508941 307.61471387 -106.0625 310 C-102.09659933 314.86286138 -102.09659933 314.86286138 -100.37109375 317.3125 C-99.91863281 317.869375 -99.46617187 318.42625 -99 319 C-98.34 319 -97.68 319 -97 319 C-97 319.66 -97 320.32 -97 321 C-95.36929222 322.70186594 -93.69428521 324.36141732 -92 326 C-91.08338066 326.97452494 -90.17463441 327.95650817 -89.2734375 328.9453125 C-88.80446045 329.45940674 -88.3354834 329.97350098 -87.85229492 330.50317383 C-87.3647876 331.03837646 -86.87728027 331.5735791 -86.375 332.125 C-81.54660062 337.39815003 -76.56547728 342.46536104 -71.4765625 347.48828125 C-68.67948304 350.32506689 -66.07568079 353.27692754 -63.53515625 356.34375 C-61.82847971 358.18504988 -60.09210969 359.61371318 -58 361 C-57.34 361 -56.68 361 -56 361 C-55.75121094 361.57363281 -55.50242187 362.14726563 -55.24609375 362.73828125 C-53.81810133 365.33015465 -52.16052094 367.10510677 -50.0625 369.1875 C-49.37285156 369.88230469 -48.68320312 370.57710937 -47.97265625 371.29296875 C-46.01392867 373.20738746 -46.01392867 373.20738746 -43 374 C-42.67 374.99 -42.34 375.98 -42 377 C-41.34 377.165 -40.68 377.33 -40 377.5 C-39.34 377.665 -38.68 377.83 -38 378 C-37.67 378.99 -37.34 379.98 -37 381 C-33.52064528 384.64013067 -33.52064528 384.64013067 -29 386 C-29 386.66 -29 387.32 -29 388 C-19.02765411 398.64141702 -5.68609074 407.35058685 6 416 C7.58421711 417.18632072 9.16766484 418.37367026 10.75 419.5625 C11.38421875 420.03816406 12.0184375 420.51382813 12.671875 421.00390625 C13.11015625 421.33261719 13.5484375 421.66132812 14 422 C22.89577581 418.03714859 30.17716798 409.98511076 37.25 403.46484375 C39.93077009 401.06205124 42.68506073 398.80565473 45.5 396.5625 C53.09872574 390.42464836 59.90186647 383.63569712 66 376 C67.65788785 374.65576661 69.32576317 373.32381517 71 372 C75.35464915 367.92730655 79.2961177 363.54880294 83.18359375 359.03515625 C85.05228832 356.94141459 87.00044735 354.96873103 89 353 C92.1997577 349.84315093 95.18803058 346.578103 98.10546875 343.16015625 C99.44456173 341.63331416 100.82708159 340.14404994 102.23828125 338.68359375 C111.42207086 329.08968276 119.21094391 317.96629962 125 306 C125.49242187 305.236875 125.98484375 304.47375 126.4921875 303.6875 C128.5846481 299.95793292 129.81373951 296.05897719 131.125 292 C131.38925781 291.2059375 131.65351562 290.411875 131.92578125 289.59375 C137.57956215 272.37411273 136.94775668 252.32198901 129.09375 235.859375 C124.4732543 225.69715757 124.4732543 225.69715757 116.375 219 C114 218 114 218 112.875 215.4375 C112.441875 214.2309375 112.441875 214.2309375 112 213 C111.01 212.67 110.02 212.34 109 212 C108.69707031 211.38898438 108.39414062 210.77796875 108.08203125 210.1484375 C103.76216073 201.57107727 89.77829206 197.22641838 81.39453125 193.99609375 C53.74341841 185.12201568 21.79908337 194.53616642 1 214 Z " fill="#C47D60" transform="translate(446,205)"/>
<path d="" fill="#BF8060" transform="translate(0,0)"/>
<path d="" fill="#C37C60" transform="translate(0,0)"/>
</svg>
